<?xml version="1.0" encoding="UTF-8"?>
<svg id="Layer_1" data-name="Layer 1" xmlns="http://www.w3.org/2000/svg" viewBox="0 0 414.57 132.18">
  <defs>
    <style>
      .cls-1 {
        fill: #414042;
      }
    </style>
  </defs>
  <g>
    <g>
      <polygon class="cls-1" points="196 31.39 178.72 6.55 164.39 6.55 164.39 52.95 179.4 52.95 179.4 28.12 196.68 52.95 211.01 52.95 211.01 6.55 196 6.55 196 31.39"/>
      <path class="cls-1" d="M233.98,6.55l-18.19,46.4h15.46l2.2-6.14h17.44l2.2,6.14h15.46l-18.19-46.4h-16.37ZM236.98,35.67l5.19-14.49,5.19,14.49h-10.37Z"/>
      <polygon class="cls-1" points="332.89 35.33 354.04 35.33 354.04 24.18 332.89 24.18 332.89 17.93 354.27 17.93 354.27 6.55 318.11 6.55 318.11 52.95 354.73 52.95 354.73 41.58 332.89 41.58 332.89 35.33"/>
      <polygon class="cls-1" points="286.96 37.06 276.04 6.55 260.58 6.55 278.77 52.95 295.15 52.95 313.34 6.55 297.87 6.55 286.96 37.06"/>
      <path class="cls-1" d="M395.8,36.45c5.39-2.26,8.13-7.14,8.13-13.34,0-5.86-2.14-10.2-6.35-12.89-3.92-2.5-9-3.67-15.99-3.67h-19.58v46.4h14.55v-12.96h5.23l8.87,12.96h15.46l-11.73-15.92,1.41-.59ZM384.29,28.16h-7.96v-9.78h7.96c2.7,0,4.89,2.19,4.89,4.89s-2.19,4.89-4.89,4.89Z"/>
    </g>
    <path class="cls-1" d="M387.14,102.4c-1.04-1.4-2.68-2.69-4.4-3.41,1.34-1.21,1.87-1.65,2.73-2.98,1.15-1.77,1.73-3.91,1.73-6.38,0-4.29-1.63-7.61-4.85-9.87-3.14-2.21-7.76-3.33-13.71-3.33h-19.99v46.71h23.12c5.65-.04,10-1.24,12.92-3.56,2.97-2.36,4.48-5.91,4.48-10.55,0-2.59-.68-4.82-2.03-6.64ZM360.94,86.2h7.7c2.29,0,3.94.38,4.91,1.12.93.71,1.38,1.89,1.38,3.6,0,1.47-.42,2.53-1.28,3.26-.89.75-2.46,1.13-4.67,1.15h-8.04v-9.13ZM375.56,112.17c-.93.79-2.31,1.19-4.11,1.19h-10.51v-9.51h11.01c3.38.02,4.96,1.61,4.96,5.02,0,1.44-.44,2.52-1.35,3.3Z"/>
    <rect class="cls-1" x="216.42" y="76.15" width="14.38" height="47.02"/>
    <path class="cls-1" d="M179.88,76.77l-18.19,46.4h15.46l2.2-6.14h17.44l2.2,6.14h15.46l-18.19-46.4h-16.37ZM182.88,105.89l5.19-14.49,5.19,14.49h-10.37Z"/>
    <path class="cls-1" d="M309.04,76.77l-18.19,46.4h15.46l2.2-6.14h17.44l2.2,6.14h15.46l-18.19-46.4h-16.37ZM312.04,105.89l5.19-14.49,5.19,14.49h-10.37Z"/>
    <polygon class="cls-1" points="268.29 111.8 268.29 76.15 253.91 76.15 253.91 123.17 256.42 123.17 256.42 123.22 286.06 123.22 290.89 111.8 268.29 111.8"/>
  </g>
  <polygon class="cls-1" points="138.08 125.14 106.97 125.14 53.93 32.26 69.49 5.31 100.6 5.31 153.63 98.19 138.08 125.14"/>
  <polygon class="cls-1" points="61.7 125.14 30.59 125.14 15.03 98.19 30.59 71.25 61.7 71.25 77.26 98.19 61.7 125.14"/>
</svg>